<svg width="24" height="24" viewBox="0 0 24 24" fill="none" xmlns="http://www.w3.org/2000/svg">
<path d="M12.0188 0.159485L0.431396 3.38605L12.0188 6.41242L23.6061 3.33894L12.0188 0.159485Z" fill="#F58634"/>
<path d="M12.0188 0.159485L0.431396 3.38605L12.0188 6.41242L23.6061 3.33894L12.0188 0.159485Z" fill="#F58634"/>
<path d="M12.4664 2.62063L15.5752 1.6668C11.6418 1.14267 9.49417 1.30807 5.77776 2.52643C5.01234 2.77736 3.65813 3.6098 5.77776 4.35167C8.79236 5.40678 13.3731 5.54102 17.1767 4.35167C19.6732 3.57104 20.0971 2.75017 17.2591 1.98474L14.0797 2.93858C16.27 3.75111 12.3941 4.30652 10.3232 3.78643C7.60301 3.10328 9.72265 2.42045 12.4664 2.62063Z" fill="#FEFEFE"/>
<path d="M12.0188 6.57728V9.76851L14.7979 9.20648C16.3523 6.28289 20.6387 5.22307 21.8987 7.77045L23.6062 7.42513V3.56268L12.0188 6.57728Z" fill="#F58634"/>
<path d="M23.6062 12.053V7.57822L22.0282 8.00215C22.3931 9.07259 22.4923 9.68752 22.5228 10.8048L19.5553 11.688C19.3751 10.2495 19.1667 9.70963 18.4366 9.70963C17.2207 9.70963 16.4112 11.2876 16.4112 13.4897L23.6062 12.053Z" fill="#F58634"/>
<path d="M13.6203 14.0667C13.692 12.3024 13.8209 11.391 14.374 10.0158L12.0188 10.687V14.3846L13.6203 14.0667Z" fill="#F58634"/>
<path d="M13.6203 14.891L12.0188 15.3031V19.0007L14.3504 18.5415C13.7888 17.3961 13.6266 16.5992 13.6203 14.891Z" fill="#F58634"/>
<path d="M17.7065 16.5985C16.8069 16.5334 16.5678 15.8901 16.4112 14.1255L23.6062 12.1943V16.6809L21.4394 17.1166C22.1174 15.8272 22.3703 14.9696 22.5346 13.1364L19.5435 14.0667C19.308 15.6093 18.7074 16.5985 17.7065 16.5985Z" fill="#F58634"/>
<path d="M14.7508 19.1656L12.0188 19.9074V23.8523L23.6062 19.9074V16.8222L21.2274 17.4581C19.8497 19.5424 16.4229 20.9319 14.7508 19.1656Z" fill="#F58634"/>
<path d="M14.7979 9.20332L21.8987 7.76668C21.3217 6.70686 20.2056 6.08955 18.5073 6.42424C16.894 6.74219 15.3985 8.00219 14.7979 9.20332Z" fill="#FEFEFE"/>
<path d="M23.6062 7.57827V7.42518L14.374 10.0159C13.8377 11.4652 13.6815 12.3568 13.6204 14.0667L16.4112 13.4897C16.4583 10.9226 17.3297 9.70968 18.4367 9.70968C19.1667 9.70968 19.4254 10.1894 19.5553 11.688L22.5228 10.8048C22.504 9.70928 22.3938 9.09594 22.0283 8.00219L23.6062 7.57827Z" fill="#FEFEFE"/>
<path d="M23.6062 12.1944V12.0531C19.6876 13.1216 17.502 13.7445 13.6204 14.891C13.6471 16.5574 13.7686 17.3924 14.3505 18.5415L21.4395 17.1166C22.1166 15.787 22.3617 14.9197 22.5346 13.1364L19.5436 14.0667C19.264 15.7975 18.7193 16.5043 17.7301 16.5985C16.9529 16.5985 16.5054 15.9508 16.4112 14.1256L23.6062 12.1944Z" fill="#FEFEFE"/>
<path d="M23.6062 16.8222V16.6809C23.7332 16.5959 20.9095 17.4004 14.7508 19.1656C16.1757 20.6729 19.3552 20.0017 21.2275 17.4581L23.6062 16.8222Z" fill="#FEFEFE"/>
<path d="M0.39624 16.622V16.7987L1.99774 17.2226V18.5297L6.6845 20.0017C8.90721 20.7316 9.76561 20.694 10.2643 19.4364L0.39624 16.622Z" fill="#FEFEFE"/>
<path d="M9.81685 14.6908C10.4363 15.7764 10.6354 16.5758 10.4527 18.6946L1.99774 16.9518V12.5712L0.39624 12.1237V11.9706L9.81685 14.6908Z" fill="#FEFEFE"/>
<path d="M0.39624 7.31918V7.50759L1.99774 7.94329V12.3121L9.56956 13.8901C10.2643 13.1246 10.3939 11.9 10.0995 10.1454L0.39624 7.31918Z" fill="#FEFEFE"/>
<path d="M1.99774 5.96497V7.66068L9.80508 9.29751C9.11031 8.34367 8.89834 8.15526 7.34394 7.63712L1.99774 5.96497Z" fill="#FEFEFE"/>
<path d="M0.39624 7.31915V3.56268L12.0189 6.57728V9.76851L9.80508 9.30197C8.95722 8.09635 8.63928 8.05011 6.60207 7.40158C4.96524 6.88051 3.10078 6.30609 1.99774 5.96494V7.65665L0.39624 7.31915Z" fill="#9A443A"/>
<path d="M1.99774 7.94327L0.39624 7.50756V11.9706L1.99774 12.3121V7.94327Z" fill="#9A443A"/>
<path d="M4.71795 11.5113V9.76851C7.34394 10.5104 7.37927 10.5693 7.42637 11.4524C7.48792 12.6065 6.7316 12.1119 4.71795 11.5113Z" fill="#9A443A"/>
<path d="M12.0189 10.687L10.0995 10.1453C10.441 11.582 10.2526 13.3601 9.56956 13.89L12.0189 14.3846V10.687Z" fill="#9A443A"/>
<path d="M12.0189 19.0007V15.3031L9.81685 14.6908C10.4998 15.6682 10.6529 17.1284 10.4527 18.6945L12.0189 19.0007Z" fill="#9A443A"/>
<path d="M4.71795 16.2099V14.1726C7.56621 15.0283 7.56773 15.0556 7.62575 16.101L7.62656 16.1157C7.74432 17.3521 6.80226 16.8811 4.71795 16.2099Z" fill="#9A443A"/>
<path d="M1.99774 12.5711L0.39624 12.1237V16.622L1.99774 16.9517V12.5711Z" fill="#9A443A"/>
<path d="M1.99774 17.2226L0.39624 16.7986V19.8603L12.0189 23.8523V19.9074L10.2643 19.4364C9.46358 21.3559 8.38021 20.4256 1.99774 18.5297V17.2226Z" fill="#9A443A"/>
</svg>
