<svg xmlns="http://www.w3.org/2000/svg" fill="none" viewBox="0 0 36 36"><path fill="#373435" d="M18.023 14.588 0 10.88l18.023 5.13L36 11.036l-17.977 3.551ZM18.028 21.613 0 17.946l18.028 5.068L36 18.072l-17.972 3.54ZM18.028 28.623 0 25.015l18.028 5.194L36 25.102l-17.972 3.52Z"/><path fill="#F58634" d="M18.027 0 .055 4.903 18.027 9.5 36 4.831 18.027 0Z"/><path fill="#F58634" d="M18.027 0 .055 4.903 18.027 9.5 36 4.831 18.027 0Z"/><path fill="#FEFEFE" d="m18.722 3.74 4.822-1.45c-6.101-.796-9.432-.545-15.197 1.306-1.187.382-3.287 1.647 0 2.774 4.676 1.603 11.781 1.807 17.68 0 3.873-1.186 4.53-2.434.128-3.597l-4.931 1.45C24.62 5.457 18.61 6.3 15.397 5.51c-4.219-1.038-.931-2.076 3.325-1.771Z"/><path fill="#F58634" d="M18.027 9.752V14.6l4.31-.854c2.412-4.442 9.06-6.052 11.014-2.181L36 11.04V5.17l-17.973 4.58ZM36 18.072v-6.8l-2.448.644c.566 1.627.72 2.561.767 4.259l-4.602 1.342c-.28-2.186-.603-3.006-1.736-3.006-1.886 0-3.141 2.398-3.141 5.744L36 18.072ZM20.511 21.131c.111-2.68.311-4.065 1.17-6.155l-3.654 1.02v5.618l2.484-.483ZM20.511 22.384l-2.484.626v5.618l3.616-.698c-.87-1.74-1.122-2.95-1.132-5.546ZM26.849 24.978c-1.395-.099-1.766-1.076-2.01-3.757L36 18.286v6.817l-3.36.662c1.051-1.959 1.444-3.262 1.699-6.047l-4.64 1.413c-.365 2.344-1.297 3.847-2.849 3.847ZM22.265 28.879l-4.238 1.127V36L36 30.006v-4.688l-3.69.966c-2.137 3.167-7.452 5.279-10.046 2.595Z"/><path fill="#FEFEFE" d="m22.338 13.742 11.014-2.183c-.895-1.61-2.626-2.549-5.26-2.04-2.503.483-4.822 2.397-5.754 4.223ZM36 11.272v-.232l-14.32 3.936c-.831 2.202-1.074 3.557-1.168 6.155l4.328-.877c.073-3.9 1.425-5.743 3.142-5.743 1.132 0 1.533.729 1.735 3.006l4.603-1.342c-.03-1.665-.2-2.597-.767-4.259L36 11.272ZM36 18.286v-.214a664.612 664.612 0 0 0-15.488 4.312c.04 2.532.23 3.8 1.132 5.546l10.995-2.165c1.05-2.02 1.43-3.338 1.699-6.047l-4.64 1.413c-.433 2.63-1.278 3.704-2.812 3.847-1.206 0-1.9-.984-2.046-3.757L36 18.286ZM36 25.318v-.215c-.177.038-4.183 1.093-13.735 3.776 2.21 2.29 7.142 1.27 10.046-2.595l3.69-.966ZM0 25.014v.268l2.484.645v1.986l7.27 2.236c3.447 1.11 4.778 1.052 5.552-.859L0 25.014ZM14.612 22.08c.96 1.65 1.27 2.864.986 6.083L2.484 25.515V18.86L0 18.179v-.232l14.612 4.133ZM0 10.879v.286l2.484.662v6.638l11.744 2.398c1.078-1.163 1.279-3.024.822-5.69L0 10.88ZM2.484 8.821v2.577l12.11 2.487c-1.078-1.45-1.407-1.736-3.818-2.523l-8.292-2.54Z"/><path fill="#9A443A" d="M0 10.879V5.17l18.027 4.58v4.85l-3.433-.71c-1.315-1.831-1.809-1.902-4.968-2.887-2.54-.792-5.431-1.665-7.142-2.183v2.57L0 10.88ZM2.484 11.827 0 11.165v6.781l2.484.52v-6.639ZM6.703 17.249V14.6c4.073 1.128 4.128 1.217 4.201 2.56.096 1.753-1.078 1.001-4.2.089ZM18.027 15.996l-2.977-.823c.53 2.183.238 4.885-.822 5.69l3.8.751v-5.618ZM18.027 28.628V23.01l-3.415-.93c1.06 1.485 1.297 3.703.986 6.083l2.43.465ZM6.703 24.388v-3.096c4.418 1.3 4.42 1.342 4.51 2.93l.002.023c.182 1.878-1.279 1.163-4.512.143ZM2.484 18.859 0 18.179v6.835l2.484.501v-6.656ZM2.484 25.927 0 25.282v4.652L18.027 36v-5.994l-2.721-.716c-1.242 2.917-2.922 1.503-12.822-1.377v-1.986Z"/></svg>